<svg id="Advertising_inserts_icon" data-name="Advertising inserts_icon" xmlns="http://www.w3.org/2000/svg" width="25" height="27" viewBox="0 0 25 27">
  <path id="Path_46" data-name="Path 46" d="M14.271,134.735a.878.878,0,0,0-.877-.878H9.883a2.633,2.633,0,0,0-2.633,2.633V140a2.633,2.633,0,0,0,2.633,2.633h3.511a.878.878,0,0,0,.877-.878Zm-1.755.878H9.883a.878.878,0,0,0-.878.878V140a.878.878,0,0,0,.878.878h2.633Z" transform="translate(-7.25 -122.656)" fill="#112c61" fill-rule="evenodd"/>
  <path id="Path_47" data-name="Path 47" d="M23.282,306.3a2.633,2.633,0,0,0-3.81-2.354l-6.237,3.119a.873.873,0,0,0-.485.783v7.024a.873.873,0,0,0,.485.783l6.237,3.119a2.633,2.633,0,0,0,3.81-2.354Zm-8.777,8.028,5.751,2.875a.877.877,0,0,0,1.27-.783V306.3a.877.877,0,0,0-1.27-.783l-5.751,2.875Z" transform="translate(-7.646 -295.768)" fill="#112c61" fill-rule="evenodd"/>
  <path id="Path_48" data-name="Path 48" d="M18.926,109.991a.877.877,0,0,0-.871-.768H14.544a.877.877,0,0,0-.871.987s.428,3.432.687,5.5a2.617,2.617,0,0,0,2.6,2.293h0a2.62,2.62,0,0,0,2.6-2.946Zm-1.645.987H15.539l.563,4.511a.863.863,0,0,0,.855.755h0a.866.866,0,0,0,.859-.973Z" transform="translate(-11.912 -91)" fill="#112c61" fill-rule="evenodd"/>
  <path id="Path_49" data-name="Path 49" d="M25,104.877v12.288a.878.878,0,0,0,1.755,0V104.877a.878.878,0,0,0-1.755,0Z" transform="translate(-14.672 -95.432)" fill="#112c61" fill-rule="evenodd"/>
  <path id="Path_50" data-name="Path 50" d="M23.878,115a.878.878,0,0,0-.878.878V122.9a.878.878,0,0,0,.878.878,4.389,4.389,0,1,0,0-8.777Zm.878,1.905v4.966a2.634,2.634,0,0,0,0-4.966Z" transform="translate(-9.276 -103.799)" fill="#112c61" fill-rule="evenodd"/>
  <path id="advertisement" d="M14.887,19.4H15.8l-.428-1.307ZM19.678,19a.593.593,0,1,0,.588.593A.593.593,0,0,0,19.678,19Zm2.755-4.723H12.2A1.181,1.181,0,0,0,11,15.46v7.084a1.181,1.181,0,0,0,1.181,1.181H22.432a1.181,1.181,0,0,0,1.2-1.181V15.46a1.181,1.181,0,0,0-1.2-1.181Zm-5.247,7.084h-.418a.4.4,0,0,1-.374-.262l-.18-.525h-1.73l-.18.525a.4.4,0,0,1-.374.262h-.418a.394.394,0,0,1-.369-.525l1.322-3.78a.593.593,0,0,1,.559-.4h.651a.593.593,0,0,1,.559.4l1.322,3.8a.394.394,0,0,1-.369.505Zm4.261-.394a.394.394,0,0,1-.394.394h-.389a.379.379,0,0,1-.3-.141,1.735,1.735,0,0,1-.69.141,1.773,1.773,0,1,1,0-3.542,1.8,1.8,0,0,1,.588.107v-.87a.4.4,0,0,1,.4-.394h.389a.394.394,0,0,1,.394.394Z" transform="translate(1.368 -14.28)" fill="#112c61"/>
</svg>
