<svg xmlns="http://www.w3.org/2000/svg" width="10.449" height="12.119" viewBox="0 0 10.449 12.119">
  <path id="alert_notification_icon" data-name="alert notification_icon" d="M0,6.552V6.43A2,2,0,0,1,.335,5.419,2.707,2.707,0,0,0,1,4.133c0-.37,0-.746.032-1.117A3.612,3.612,0,0,1,4.7,0h.043A3.621,3.621,0,0,1,8.424,3.017c.032.37,0,.746.027,1.117a2.754,2.754,0,0,0,.663,1.291A1.949,1.949,0,0,1,9.449,6.43v.116a1.982,1.982,0,0,1-.469,1.328,2.5,2.5,0,0,1-1.585.762,25.056,25.056,0,0,1-5.344,0A2.532,2.532,0,0,1,.464,7.875,2,2,0,0,1,0,6.552Zm3.365,3.927a1.715,1.715,0,0,0,2.384.28,1.6,1.6,0,0,0,.291-.28" transform="translate(0.5 0.5)" fill="none" stroke="#459cb2" stroke-linecap="round" stroke-linejoin="round" stroke-width="1" fill-rule="evenodd"/>
</svg>
