<svg id="attachment_icon" xmlns="http://www.w3.org/2000/svg" width="16.587" height="18.389" viewBox="0 0 16.587 18.389">
  <path id="Attachment" d="M14.26,25.943a4.487,4.487,0,0,1,0-6.337L24.18,9.8a3.135,3.135,0,1,1,4.434,4.434l-9.92,9.83a1.789,1.789,0,0,1-2.53-2.53l4.993-4.881a.443.443,0,1,1,.627.627l-4.971,4.881a.906.906,0,0,0,0,1.254.892.892,0,0,0,1.276,0l9.92-9.808a2.233,2.233,0,0,0-3.157-3.157l-9.942,9.808a3.578,3.578,0,0,0,5.061,5.061l8.576-8.464a.443.443,0,0,1,.627.627L20.6,25.966A4.487,4.487,0,0,1,14.26,25.943Z" transform="translate(-12.95 -8.875)" fill="#b6bac4"/>
</svg>
