<svg xmlns="http://www.w3.org/2000/svg" width="12.049" height="10.375" viewBox="0 0 12.049 10.375">
  <g id="bathtub" transform="translate(-6 -11)">
    <path id="Path_65" data-name="Path 65" d="M11.008,12.339a.335.335,0,0,0-.318.229l-.335,1a.335.335,0,0,0,.318.441h1.339a.335.335,0,0,0,.318-.441l-.335-1a.335.335,0,0,0-.318-.229,1.339,1.339,0,1,0-2.677,0v3.012a.335.335,0,1,0,.669,0V12.339a.669.669,0,1,1,1.339,0Zm.13,1,.112-.335h.187l.112.335Zm.205,6.694v1a.335.335,0,0,1-.669,0v-1a.335.335,0,0,1,.669,0Zm6.024,0v1a.335.335,0,0,1-.669,0v-1a.335.335,0,1,1,.669,0Z" transform="translate(-1.996)" fill="#848790"/>
    <path id="Path_66" data-name="Path 66" d="M18.048,23.837A.838.838,0,0,0,17.212,23H6.837a.834.834,0,0,0-.5,1.5v1.51a2.345,2.345,0,0,0,2.343,2.343h6.694a2.345,2.345,0,0,0,2.343-2.343V24.5A.833.833,0,0,0,18.048,23.837ZM6.837,23.669H17.212a.167.167,0,1,1,0,.335H6.837a.167.167,0,0,1,0-.335Zm10.208,2.343a1.675,1.675,0,0,1-1.673,1.673H8.677A1.675,1.675,0,0,1,7,26.012V24.673h10.04Z" transform="translate(0 -7.984)" fill="#848790"/>
  </g>
</svg>
