<svg xmlns="http://www.w3.org/2000/svg" width="13.049" height="8.585" viewBox="0 0 13.049 8.585">
  <g id="bedroom_icon" transform="translate(-5 -20)">
    <path id="Path_68" data-name="Path 68" d="M6.374,21.03v2.4A1.373,1.373,0,0,0,5,24.807v2.4a.344.344,0,0,0,.343.343h.343v.687a.344.344,0,0,0,.343.343H7.4a.344.344,0,0,0,.343-.343v-.687H15.3v.687a.344.344,0,0,0,.343.343h1.374a.344.344,0,0,0,.343-.343v-.687h.343a.344.344,0,0,0,.343-.343v-2.4a1.373,1.373,0,0,0-1.374-1.374v-2.4A1.033,1.033,0,0,0,15.645,20H7.4A1.033,1.033,0,0,0,6.374,21.03ZM7.06,27.9H6.374v-.343H7.06Zm9.615,0h-.687v-.343h.687Zm.687-1.03H5.687v-.687H17.362Zm-.687-2.747a.689.689,0,0,1,.687.687v.687H5.687v-.687a.689.689,0,0,1,.687-.687ZM8.09,23.434v-.687h2.06v.687Zm4.807,0v-.687h2.06v.687Zm3.09-2.4v2.4h-.343v-.687a.689.689,0,0,0-.687-.687H12.9a.689.689,0,0,0-.687.687v.687H10.838v-.687a.689.689,0,0,0-.687-.687H8.09a.689.689,0,0,0-.687.687v.687H7.06v-2.4a.344.344,0,0,1,.343-.343h8.241A.344.344,0,0,1,15.988,21.03Z" fill="#848790"/>
  </g>
</svg>
