<svg xmlns="http://www.w3.org/2000/svg" width="134" height="134" viewBox="0 0 134 134">
  <g id="bussiness_plan_icon" data-name="bussiness plan_icon" transform="translate(-913 -414)">
    <path id="Path_210" data-name="Path 210" d="M148,284.07v20.181a2.728,2.728,0,0,1-2.691,2.691H129.162V290.8H118.4v16.145H102.254a2.728,2.728,0,0,1-2.691-2.691V284.07a.575.575,0,0,1,.021-.126.574.574,0,0,0,.021-.126l24.175-19.929,24.175,19.929A.586.586,0,0,1,148,284.07Zm9.376-2.9-2.607,3.111a1.43,1.43,0,0,1-.883.462h-.126a1.292,1.292,0,0,1-.883-.294l-29.094-24.259L94.687,284.449a1.562,1.562,0,0,1-1.009.294,1.43,1.43,0,0,1-.883-.462l-2.607-3.111a1.364,1.364,0,0,1-.294-.988,1.221,1.221,0,0,1,.462-.9l30.229-25.184a5.217,5.217,0,0,1,6.391,0l10.259,8.577v-8.2a1.3,1.3,0,0,1,1.345-1.345h8.072A1.3,1.3,0,0,1,148,254.472v17.154l9.208,7.652a1.221,1.221,0,0,1,.462.9A1.363,1.363,0,0,1,157.373,281.169Z" transform="translate(855.328 200.594)" fill="#009eb5"/>
    <g id="Group_388" data-name="Group 388" transform="translate(341.977 -220.023)">
      <g id="Ellipse_30" data-name="Ellipse 30" transform="translate(571.023 634.023)" fill="none" stroke="#459cb2" stroke-width="1" stroke-dasharray="7">
        <circle cx="67" cy="67" r="67" stroke="none"/>
        <circle cx="67" cy="67" r="66.5" fill="none"/>
      </g>
    </g>
  </g>
</svg>
