<svg xmlns="http://www.w3.org/2000/svg" width="10.584" height="10.584" viewBox="0 0 10.584 10.584">
  <path id="calendar_icon" d="M11,3.058H9.938V2.529a.529.529,0,1,0-1.058,0v.529H5.7V2.529a.529.529,0,0,0-1.058,0v.529H3.588A1.588,1.588,0,0,0,2,4.646V11a1.588,1.588,0,0,0,1.588,1.588H11A1.588,1.588,0,0,0,12.584,11V4.646A1.588,1.588,0,0,0,11,3.058ZM11.526,11a.529.529,0,0,1-.529.529H3.588A.529.529,0,0,1,3.058,11v-3.7h8.467Zm0-4.763H3.058V4.646a.529.529,0,0,1,.529-.529H4.646v.529a.529.529,0,0,0,1.058,0V4.117H8.88v.529a.529.529,0,1,0,1.058,0V4.117H11a.529.529,0,0,1,.529.529Z" transform="translate(-2 -2)" fill="#fff"/>
</svg>
