<svg id="calendar_icon" xmlns="http://www.w3.org/2000/svg" width="28" height="28" viewBox="0 0 28 28">
  <circle id="Ellipse_73" data-name="Ellipse 73" cx="14" cy="14" r="14" fill="#112c61"/>
  <path id="Path_3866" data-name="Path 3866" d="M8.688,0a.483.483,0,0,1,.449.5h0v.7a3.043,3.043,0,0,1,3.089,3.358h0v5.617c0,2.259-1.288,3.407-3.821,3.407H3.821C1.288,13.585,0,12.437,0,10.178H0V4.561A3.085,3.085,0,0,1,1.406,1.677h0l.066-.038a.465.465,0,0,1,.431.019.484.484,0,0,1-.049.859A2.134,2.134,0,0,0,.933,4.561h0v.18H9.551a.475.475,0,0,1,0,.949H.933v4.488c0,1.724.839,2.439,2.888,2.451H8.4c2.02,0,2.882-.733,2.882-2.457h0V4.555a2.109,2.109,0,0,0-2.15-2.4h0v.457A.472.472,0,0,1,8.2,2.572h0V.457L8.207.382A.477.477,0,0,1,8.349.125.462.462,0,0,1,8.688,0Zm.269,9.642.075,0a.587.587,0,0,1,.343.169.606.606,0,0,1,.175.427.591.591,0,1,1-.591-.6Zm-2.832,0,.074,0a.591.591,0,1,1-.074,0Zm-2.832,0,.075,0a.587.587,0,0,1,.343.169.606.606,0,0,1,.175.427.591.591,0,1,1-.591-.6ZM8.957,7.21l.075,0a.587.587,0,0,1,.343.169.606.606,0,0,1,.175.427.591.591,0,1,1-.591-.6Zm-2.832,0,.074,0a.591.591,0,1,1-.074,0Zm-2.832,0,.075,0a.587.587,0,0,1,.343.169.606.606,0,0,1,.175.427.591.591,0,1,1-.591-.6ZM3.559.072A.476.476,0,0,1,4.028.5h0v.655H6.7a.475.475,0,0,1,0,.949H4.016v.475a.479.479,0,0,1-.139.338.462.462,0,0,1-.334.137h0l-.068-.007a.473.473,0,0,1-.387-.474h0V.5L3.1.428A.474.474,0,0,1,3.559.072Z" transform="translate(7.887 7.863)" fill="#fff"/>
</svg>
