<svg xmlns="http://www.w3.org/2000/svg" width="11.596" height="11.563" viewBox="0 0 11.596 11.563">
  <path id="call_icon" d="M12.141,8.418a1.831,1.831,0,0,1-.39-.07,5.493,5.493,0,0,1-.762-.227A1.164,1.164,0,0,0,9.546,8.7l-.128.262A7.088,7.088,0,0,1,7.87,7.8,7.088,7.088,0,0,1,6.706,6.253L6.95,6.09a1.164,1.164,0,0,0,.582-1.443,6.011,6.011,0,0,1-.227-.762c-.029-.128-.052-.262-.07-.4A1.746,1.746,0,0,0,5.49,2.04H3.744A1.746,1.746,0,0,0,2,4.024,11.056,11.056,0,0,0,11.611,13.6h.221a1.742,1.742,0,0,0,1.746-1.752V10.105A1.746,1.746,0,0,0,12.141,8.418Zm.291,3.491a.582.582,0,0,1-.2.436.611.611,0,0,1-.477.145A9.892,9.892,0,0,1,3.2,3.89a.634.634,0,0,1,.145-.477.582.582,0,0,1,.436-.2H5.525a.582.582,0,0,1,.582.46q.035.239.087.471a6.471,6.471,0,0,0,.268.9l-.815.378a.582.582,0,0,0-.285.774,8.432,8.432,0,0,0,4.073,4.073.616.616,0,0,0,.774-.3l.361-.815a7.966,7.966,0,0,0,.919.268q.233.052.471.087a.582.582,0,0,1,.46.582Z" transform="translate(-1.982 -2.04)" fill="#6c7079"/>
</svg>
