<svg xmlns="http://www.w3.org/2000/svg" width="14.176" height="10.101" viewBox="0 0 14.176 10.101">
  <g id="email_icon" transform="translate(-2.08 -10.68)">
    <path id="Path_77" data-name="Path 77" d="M14.242,20.781H4.094A2.016,2.016,0,0,1,2.08,18.768V12.694A2.016,2.016,0,0,1,4.094,10.68H14.242a2.016,2.016,0,0,1,2.014,2.014v6.074A2.016,2.016,0,0,1,14.242,20.781ZM4.094,11.391a1.3,1.3,0,0,0-1.3,1.3v6.074a1.3,1.3,0,0,0,1.3,1.3H14.242a1.3,1.3,0,0,0,1.3-1.3V12.694a1.3,1.3,0,0,0-1.3-1.3Z" transform="translate(0)" fill="#6d7078"/>
    <path id="Path_78" data-name="Path 78" d="M9.78,21.217a2.016,2.016,0,0,1-1.215-.405L3.033,16.628a.355.355,0,1,1,.429-.566l5.532,4.188a1.315,1.315,0,0,0,1.573,0L16.1,16.062a.355.355,0,1,1,.429.566l-5.532,4.184a2.016,2.016,0,0,1-1.215.405Z" transform="translate(-0.612 -4.046)" fill="#6d7078"/>
    <path id="Path_79" data-name="Path 79" d="M3.024,34.327a.355.355,0,0,1-.237-.621l4.359-3.887a.356.356,0,1,1,.474.531L3.261,34.237a.346.346,0,0,1-.237.09Zm13.186,0a.346.346,0,0,1-.237-.09L11.613,30.35a.356.356,0,1,1,.474-.531l4.357,3.887a.355.355,0,0,1-.237.621Z" transform="translate(-0.448 -14.536)" fill="#6d7078"/>
  </g>
</svg>
