<svg xmlns="http://www.w3.org/2000/svg" width="15.786" height="15.786" viewBox="0 0 15.786 15.786">
  <path id="emojis_icon" d="M9.893,2A7.893,7.893,0,1,1,2,9.893,7.893,7.893,0,0,1,9.893,2Zm0,1.316a6.578,6.578,0,1,0,6.578,6.578A6.578,6.578,0,0,0,9.893,3.316Zm2.452,8.77a.658.658,0,1,1,.98.877,4.6,4.6,0,0,1-6.864,0,.658.658,0,1,1,.98-.877,3.289,3.289,0,0,0,4.9,0ZM7.591,7.591a.987.987,0,1,1-.987.987A.987.987,0,0,1,7.591,7.591Zm4.6,0a.987.987,0,1,1-.987.987A.987.987,0,0,1,12.2,7.591Z" transform="translate(-2 -2)" fill="#b6bac4"/>
</svg>
