<svg xmlns="http://www.w3.org/2000/svg" width="19.9" height="20.01" viewBox="0 0 19.9 20.01">
  <path id="Estimate_made_icon" data-name="Estimate made_icon" d="M6.307,16.894v-2.76a1.319,1.319,0,0,1,1.349-1.277H10.39a1.319,1.319,0,0,1,1.358,1.277h0V16.9A1.131,1.131,0,0,0,12.887,18H14.71A3.2,3.2,0,0,0,18,14.906h0V7.054a2.161,2.161,0,0,0-.911-1.714L10.855.617a3.138,3.138,0,0,0-3.737,0L.911,5.348A2.144,2.144,0,0,0,0,7.063v7.843A3.2,3.2,0,0,0,3.29,18H5.113a1.142,1.142,0,0,0,1.176-1.106h0" transform="translate(0.95 1.06)" fill="none" stroke="#112c61" stroke-linecap="round" stroke-linejoin="round" stroke-width="1.9"/>
</svg>
