<svg xmlns="http://www.w3.org/2000/svg" width="16.004" height="16.004" viewBox="0 0 16.004 16.004">
  <path id="facebook_icon" d="M15.926,3H6.078A3.078,3.078,0,0,0,3,6.078v9.848A3.078,3.078,0,0,0,6.078,19H11a.616.616,0,0,0,.616-.616V13.464A.616.616,0,0,0,11,12.848h-.616V11.617H11A.616.616,0,0,0,11.617,11V8.847a1.539,1.539,0,0,1,1.539-1.539h1.539V8.54h-.616a1.231,1.231,0,0,0-1.231,1.231V11a.616.616,0,0,0,.616.616h1.059l-.308,1.231h-.751a.616.616,0,0,0-.616.616v2.462a.616.616,0,1,0,1.231,0V14.079h.616a.616.616,0,0,0,.616-.468l.616-2.462a.611.611,0,0,0-.616-.763H14.079V9.771H15.31a.616.616,0,0,0,.616-.616V6.693a.616.616,0,0,0-.616-.616H13.156a2.776,2.776,0,0,0-2.77,2.77v1.539H9.771A.616.616,0,0,0,9.155,11v2.462a.616.616,0,0,0,.616.616h.616v3.693H6.078a1.847,1.847,0,0,1-1.847-1.847V6.078A1.847,1.847,0,0,1,6.078,4.231h9.848a1.847,1.847,0,0,1,1.847,1.847v9.848a1.847,1.847,0,0,1-1.847,1.847H13.464a.616.616,0,1,0,0,1.231h2.462A3.078,3.078,0,0,0,19,15.926V6.078A3.078,3.078,0,0,0,15.926,3Z" transform="translate(-3 -3)" fill="#112c61"/>
</svg>
