<svg xmlns="http://www.w3.org/2000/svg" width="30" height="30" viewBox="0 0 30 30">
  <g id="Gallery_icon" transform="translate(-850 -811)">
    <circle id="Ellipse_22" data-name="Ellipse 22" cx="15" cy="15" r="15" transform="translate(850 811)" fill="#182c5e"/>
    <path id="Path_236" data-name="Path 236" d="M12.432,235.9q0-.244-.37-.244H4.468a1.4,1.4,0,0,0-.6.15,1.443,1.443,0,0,0-.5.366l-2.052,2.534a.509.509,0,0,0-.126.279q0,.244.37.244H9.159a1.594,1.594,0,0,0,1.1-.524l2.052-2.534A.456.456,0,0,0,12.432,235.9Zm-7.965-1.138H9.829v-1.117a.667.667,0,0,0-.67-.67H5.138a.667.667,0,0,1-.67-.67v-.447a.667.667,0,0,0-.67-.67H1.564a.667.667,0,0,0-.67.67v5.954l1.787-2.2A2.354,2.354,0,0,1,3.49,235a2.254,2.254,0,0,1,.977-.241Zm8.858,1.138a1.334,1.334,0,0,1-.321.838l-2.059,2.534a2.268,2.268,0,0,1-.81.611,2.286,2.286,0,0,1-.977.241H1.564a1.5,1.5,0,0,1-1.1-.461,1.5,1.5,0,0,1-.461-1.1v-6.7a1.5,1.5,0,0,1,.461-1.1,1.5,1.5,0,0,1,1.1-.461H3.8a1.5,1.5,0,0,1,1.1.461,1.5,1.5,0,0,1,.461,1.1v.223h3.8a1.573,1.573,0,0,1,1.564,1.564v1.117h1.34a1.422,1.422,0,0,1,.691.171,1.076,1.076,0,0,1,.468.492A1.1,1.1,0,0,1,13.326,235.9Z" transform="translate(859 590.705)" fill="#fff"/>
  </g>
</svg>
