<svg id="Page-1" xmlns="http://www.w3.org/2000/svg" width="15.67" height="14.924" viewBox="0 0 15.67 14.924">
  <g id="Dribbble-Light-Preview">
    <g id="icons">
      <path id="menu_navigation_grid-_1528_" data-name="menu_navigation_grid-[#1528]" d="M97.1,52.692a.793.793,0,0,1-.819.739h-2.35a.731.731,0,0,1-.748-.739V50.453a.742.742,0,0,1,.748-.753h2.35a.8.8,0,0,1,.819.753Zm-.819-4.484h-2.35a2.271,2.271,0,0,0-2.315,2.245v2.239a2.26,2.26,0,0,0,2.315,2.232h2.35a2.322,2.322,0,0,0,2.386-2.232V50.453A2.333,2.333,0,0,0,96.284,48.208Zm-7.8,4.484a.793.793,0,0,1-.819.739h-2.35a.731.731,0,0,1-.748-.739V50.453a.742.742,0,0,1,.748-.753h2.35a.8.8,0,0,1,.819.753Zm-.819-4.484h-2.35A2.271,2.271,0,0,0,83,50.453v2.239a2.26,2.26,0,0,0,2.315,2.232h2.35a2.322,2.322,0,0,0,2.386-2.232V50.453A2.333,2.333,0,0,0,87.666,48.208ZM97.1,44.484a.793.793,0,0,1-.819.739h-2.35a.731.731,0,0,1-.748-.739V42.245a.742.742,0,0,1,.748-.753h2.35a.8.8,0,0,1,.819.753ZM96.284,40h-2.35a2.271,2.271,0,0,0-2.315,2.245v2.239a2.26,2.26,0,0,0,2.315,2.232h2.35a2.322,2.322,0,0,0,2.386-2.232V42.245A2.333,2.333,0,0,0,96.284,40Zm-7.8,4.484a.793.793,0,0,1-.819.739h-2.35a.731.731,0,0,1-.748-.739V42.245a.742.742,0,0,1,.748-.753h2.35a.8.8,0,0,1,.819.753ZM87.666,40h-2.35A2.271,2.271,0,0,0,83,42.245v2.239a2.26,2.26,0,0,0,2.315,2.232h2.35a2.322,2.322,0,0,0,2.386-2.232V42.245A2.333,2.333,0,0,0,87.666,40Z" transform="translate(-83 -40)" fill="#112c61" fill-rule="evenodd"/>
    </g>
  </g>
</svg>
