<svg xmlns="http://www.w3.org/2000/svg" width="17.167" height="17" viewBox="0 0 17.167 17">
  <g id="Group_133" data-name="Group 133" transform="translate(-340 -206)">
    <g id="favorite_1_" data-name="favorite (1)" transform="translate(340 206)">
      <path id="Path_69" data-name="Path 69" d="M0,0H17V17H0Z" fill="none"/>
    </g>
    <g id="Group_129" data-name="Group 129">
      <g id="favorite" transform="translate(340.167 206)">
        <path id="Path_71" data-name="Path 71" d="M0,0H17V17H0Z" fill="none"/>
        <path id="Path_72" data-name="Path 72" d="M14.388,3.689a4.088,4.088,0,0,0-5.374.766A4.08,4.08,0,0,0,3.64,3.689,3.8,3.8,0,0,0,2,6.675c-.1,2.7,2.315,4.866,6,8.186l.07.063a1.408,1.408,0,0,0,1.887-.007l.077-.07c3.683-3.313,6.089-5.478,6-8.179A3.8,3.8,0,0,0,14.388,3.689Zm-5.3,10.135-.07.07-.07-.07c-3.339-3-5.542-4.984-5.542-7A2.388,2.388,0,0,1,5.857,4.392a2.743,2.743,0,0,1,2.5,1.643H9.674a2.726,2.726,0,0,1,2.5-1.643,2.388,2.388,0,0,1,2.455,2.436C14.627,8.84,12.424,10.824,9.084,13.824Z" transform="translate(-0.514 -0.773)" fill="#fff"/>
      </g>
    </g>
  </g>
</svg>
