<svg xmlns="http://www.w3.org/2000/svg" width="8.585" height="9.037" viewBox="0 0 8.585 9.037">
  <path id="home_icon" d="M2.658,7.494V6.269A.569.569,0,0,1,3.226,5.7H4.378a.569.569,0,0,1,.572.567h0V7.5a.489.489,0,0,0,.48.487H6.2A1.38,1.38,0,0,0,7.585,6.612h0V3.129a.974.974,0,0,0-.384-.76L4.574.274A1.27,1.27,0,0,0,3,.274L.384,2.372A.966.966,0,0,0,0,3.133V6.612A1.38,1.38,0,0,0,1.386,7.984h.768a.493.493,0,0,0,.5-.49h0" transform="translate(0.5 0.553)" fill="none" stroke="#009eb5" stroke-linecap="round" stroke-linejoin="round" stroke-width="1" fill-rule="evenodd"/>
</svg>
