<svg xmlns="http://www.w3.org/2000/svg" width="17" height="18" viewBox="0 0 17 18">
  <g id="instagram_icon" transform="translate(-0.414 0.396)">
    <rect id="Rectangle_1589" data-name="Rectangle 1589" width="17" height="18" transform="translate(0.414 -0.396)" fill="none"/>
    <path id="Path_51" data-name="Path 51" d="M105.09,197.428a4.33,4.33,0,0,0-4.328-4.328H93.428a4.33,4.33,0,0,0-4.328,4.328v7.335a4.33,4.33,0,0,0,4.328,4.328h7.335a4.33,4.33,0,0,0,4.328-4.328Zm-1.32,0v7.335a3.009,3.009,0,0,1-3.007,3.007H93.428a3.009,3.009,0,0,1-3.007-3.007v-7.335a3.009,3.009,0,0,1,3.007-3.007h7.335A3.009,3.009,0,0,1,103.77,197.428Zm-3.088,3.109a3.6,3.6,0,0,0-3.028-3.028,3.524,3.524,0,0,0-.527-.039,3.594,3.594,0,1,0,3.594,3.594A3.521,3.521,0,0,0,100.682,200.536Zm-1.306.194a2.313,2.313,0,0,1,.024.334,2.274,2.274,0,1,1-2.274-2.274,2.313,2.313,0,0,1,.334.024A2.28,2.28,0,0,1,99.376,200.73Zm1.753-4.329a.66.66,0,1,1-.66.66A.66.66,0,0,1,101.129,196.4Z" transform="translate(-88.293 -192.293)" fill="#112c61" fill-rule="evenodd"/>
  </g>
</svg>
