<svg id="language" xmlns="http://www.w3.org/2000/svg" xmlns:xlink="http://www.w3.org/1999/xlink" width="20.034" height="20.024" viewBox="0 0 20.034 20.024">
  <defs>
    <clipPath id="clip-path">
      <rect id="Rectangle_1536" data-name="Rectangle 1536" width="20.034" height="20.024" fill="#6d7078"/>
    </clipPath>
  </defs>
  <g id="Group_46" data-name="Group 46" clip-path="url(#clip-path)">
    <path id="Path_9" data-name="Path 9" d="M10.6,20.024H9.428c-.392-.055-.787-.1-1.177-.167a10.041,10.041,0,0,1-8.211-8.98A9.549,9.549,0,0,1,2.1,3.905,9.682,9.682,0,0,1,11.8.167a9.57,9.57,0,0,1,6.576,4.346,9.689,9.689,0,0,1,1.5,3.765c.069.4.107.811.16,1.217v1.018c-.01.063-.021.126-.03.19-.081.534-.126,1.077-.249,1.6a9.814,9.814,0,0,1-2.634,4.739,9.8,9.8,0,0,1-5.478,2.833c-.346.058-.694.1-1.041.15M14.323,9.275h4.245A8.5,8.5,0,0,0,17.359,5.57a13.012,13.012,0,0,1-3.438,1.181l.4,2.524M2.676,14.436a13.184,13.184,0,0,1,3.439-1.183l-.4-2.527H1.471a8.474,8.474,0,0,0,1.205,3.71M6.139,6.752A13.032,13.032,0,0,1,2.675,5.571a8.47,8.47,0,0,0-1.2,3.709H5.74c.051-.42.09-.835.155-1.245s.157-.831.244-1.282m8.185,3.974-.4,2.5c.57.16,1.166.3,1.742.5s1.131.451,1.708.684a8.429,8.429,0,0,0,1.19-3.684ZM7.19,9.275h5.7L12.5,6.983a21.023,21.023,0,0,1-4.917.01,11.068,11.068,0,0,0-.39,2.283m.348,3.742a21.386,21.386,0,0,1,4.907-.006,8.171,8.171,0,0,0,.373-2.279H7.146l.392,2.285M16.505,4.4c-1.117-1.378-3.9-2.956-4.938-2.793a18.592,18.592,0,0,1,1.9,3.772A11.84,11.84,0,0,0,16.505,4.4M8.448,1.591A8.475,8.475,0,0,0,3.524,4.4a11.975,11.975,0,0,0,3.051.979A20.271,20.271,0,0,1,8.448,1.591m3.137,16.825a8.474,8.474,0,0,0,4.916-2.8,11.1,11.1,0,0,0-3.043-.983,20.2,20.2,0,0,1-1.874,3.783m-3.141-.008C8.1,17.8,7.733,17.2,7.419,16.572s-.582-1.29-.872-1.941a11.738,11.738,0,0,0-3.014.973c1.038,1.338,3.762,2.889,4.911,2.806M10.015,1.893A17.243,17.243,0,0,0,8.043,5.576a16.246,16.246,0,0,0,3.94.006,16.45,16.45,0,0,0-1.969-3.689M8.046,14.408A15.729,15.729,0,0,0,10.032,18.1,17.151,17.151,0,0,0,12,14.407a18.736,18.736,0,0,0-3.955,0" transform="translate(0 0)" fill="#6d7078"/>
  </g>
</svg>
