<svg id="linkedin_icon" xmlns="http://www.w3.org/2000/svg" width="15.99" height="15.99" viewBox="0 0 15.99 15.99">
  <g id="linkedin" transform="translate(4.367 3.439)">
    <path id="Path_52" data-name="Path 52" d="M107.414,92.7a.614.614,0,1,0,.614.614A.615.615,0,0,0,107.414,92.7Z" transform="translate(-106.353 -92.251)" fill="none" stroke="#112c61" stroke-width="0.3"/>
    <rect id="Rectangle_1590" data-name="Rectangle 1590" width="1.226" height="4.29" transform="translate(0.447 3.393)" fill="none" stroke="#112c61" stroke-width="0.3"/>
    <path id="Path_53" data-name="Path 53" d="M240.336,225.46a1.721,1.721,0,0,0-.616-.188,2.352,2.352,0,0,0-.967.056,3.017,3.017,0,0,0-.509.19.228.228,0,0,1-.214-.013.22.22,0,0,1-.1-.188V224.6H236.7v4.29h1.226v-1.682a.835.835,0,1,1,1.671,0v1.742h1.226v-2.609A1.038,1.038,0,0,0,240.336,225.46Z" transform="translate(-233.352 -221.205)" fill="none" stroke="#112c61" stroke-width="0.3"/>
    <path id="Path_54" data-name="Path 54" d="M30.127,35.444a.224.224,0,0,1-.223.223H28.229a.224.224,0,0,1-.223-.223V30.707a.224.224,0,0,1,.223-.223H29.9a.224.224,0,0,1,.223.223v4.737Zm-1.061-5.785A1.061,1.061,0,1,1,30.127,28.6,1.062,1.062,0,0,1,29.067,29.659ZM35.923,35.5a.224.224,0,0,1-.223.223H34.027A.224.224,0,0,1,33.8,35.5V33.539a.389.389,0,0,0-.777,0v1.905a.224.224,0,0,1-.223.223H31.13a.224.224,0,0,1-.223-.223V30.707a.224.224,0,0,1,.223-.223H32.8a.224.224,0,0,1,.223.223v.605c.087-.031.176-.06.264-.083a2.784,2.784,0,0,1,1.152-.067,2.155,2.155,0,0,1,.775.243,1.482,1.482,0,0,1,.71,1.269V35.5Z" transform="translate(-28.006 -27.537)" fill="none" stroke="#112c61" stroke-width="0.3"/>
    <path id="Path_56" data-name="Path 56" d="M88.7,75.644H87.023a.224.224,0,0,0-.223.223V80.6a.224.224,0,0,0,.223.223H88.7a.224.224,0,0,0,.223-.223V75.867A.219.219,0,0,0,88.7,75.644Zm-.223,4.737H87.249V76.09h1.226Zm5.534-3.815a2.156,2.156,0,0,0-.775-.243,2.784,2.784,0,0,0-1.152.067c-.087.025-.174.051-.264.083v-.605a.224.224,0,0,0-.223-.223H89.922a.224.224,0,0,0-.223.223V80.6a.224.224,0,0,0,.223.223H91.6a.224.224,0,0,0,.223-.223V78.7a.389.389,0,1,1,.777,0v1.965a.224.224,0,0,0,.223.223h1.673a.224.224,0,0,0,.223-.223v-2.83A1.473,1.473,0,0,0,94.01,76.566Zm.261,3.875H93.045V78.7a.835.835,0,0,0-1.671,0v1.682H90.148V76.09h1.226v.717a.222.222,0,0,0,.317.2,3.392,3.392,0,0,1,.509-.19,2.315,2.315,0,0,1,.967-.056,1.782,1.782,0,0,1,.616.188,1.041,1.041,0,0,1,.487.882ZM87.861,72.7a1.061,1.061,0,1,0,1.061,1.061A1.062,1.062,0,0,0,87.861,72.7Zm0,1.673a.614.614,0,1,1,.614-.614A.615.615,0,0,1,87.861,74.373Z" transform="translate(-86.8 -72.698)" fill="#112c61" stroke="#112c61" stroke-width="0.3"/>
  </g>
  <path id="Path_61" data-name="Path 61" d="M105.09,197.428a4.33,4.33,0,0,0-4.328-4.328H93.428a4.33,4.33,0,0,0-4.328,4.328v7.335a4.33,4.33,0,0,0,4.328,4.328h7.335a4.33,4.33,0,0,0,4.328-4.328Zm-1.32,0v7.335a3.009,3.009,0,0,1-3.007,3.007H93.428a3.009,3.009,0,0,1-3.007-3.007v-7.335a3.009,3.009,0,0,1,3.007-3.007h7.335A3.009,3.009,0,0,1,103.77,197.428Z" transform="translate(-89.1 -193.1)" fill="#112c61" fill-rule="evenodd"/>
</svg>
