<svg xmlns="http://www.w3.org/2000/svg" width="14.352" height="16.753" viewBox="0 0 14.352 16.753">
  <path id="location_icon" d="M9.177,1A7.155,7.155,0,0,0,3.988,13.1a.6.6,0,0,0,.112.143l4.142,4.125a1.333,1.333,0,0,0,1.874,0l4.128-4.114.014-.012,0,0a.6.6,0,0,0,.061-.07l.014-.019A7.168,7.168,0,0,0,9.177,1Zm0,1.2A5.97,5.97,0,0,1,13.41,12.389q-.021.021-.04.044L9.275,16.519a.119.119,0,0,1-.185,0L5.054,12.5l0,0a.6.6,0,0,0-.1-.1A5.971,5.971,0,0,1,9.177,2.2ZM9.2,4.6A3.595,3.595,0,1,0,12.8,8.2,3.6,3.6,0,0,0,9.2,4.6ZM9.2,5.8A2.4,2.4,0,1,1,6.8,8.2,2.4,2.4,0,0,1,9.2,5.8Z" transform="translate(-2.004 -1)" fill="#848790"/>
</svg>
