<svg xmlns="http://www.w3.org/2000/svg" width="9.311" height="10.868" viewBox="0 0 9.311 10.868">
  <path id="location_white_icon" d="M6.657,1A4.642,4.642,0,0,0,3.291,8.85a.389.389,0,0,0,.073.092l2.687,2.676a.865.865,0,0,0,1.216,0L9.945,8.95l.009-.008,0,0a.389.389,0,0,0,.039-.045L10,8.882A4.65,4.65,0,0,0,6.657,1Zm0,.776A3.873,3.873,0,0,1,9.4,8.389l-.026.029-2.657,2.65a.077.077,0,0,1-.12,0L3.983,8.462l0,0a.389.389,0,0,0-.065-.067A3.874,3.874,0,0,1,6.657,1.776Zm.012,1.562A2.332,2.332,0,1,0,9.008,5.67,2.336,2.336,0,0,0,6.669,3.338Zm0,.773A1.559,1.559,0,1,1,5.117,5.67,1.554,1.554,0,0,1,6.669,4.111Z" transform="translate(-2.004 -1)" fill="#fff"/>
</svg>
