<svg xmlns="http://www.w3.org/2000/svg" width="8.74" height="10.925" viewBox="0 0 8.74 10.925">
  <path id="lock_icon" d="M8.37,8.009a.814.814,0,0,0-.546,1.426v.759a.546.546,0,0,0,1.093,0V9.435A.814.814,0,0,0,8.37,8.009ZM11.1,5.824V4.731a2.731,2.731,0,1,0-5.463,0V5.824A1.639,1.639,0,0,0,4,7.463v3.824a1.639,1.639,0,0,0,1.639,1.639H11.1a1.639,1.639,0,0,0,1.639-1.639V7.463A1.639,1.639,0,0,0,11.1,5.824ZM6.731,4.731a1.639,1.639,0,0,1,3.278,0V5.824H6.731Zm4.916,6.555a.546.546,0,0,1-.546.546H5.639a.546.546,0,0,1-.546-.546V7.463a.546.546,0,0,1,.546-.546H11.1a.546.546,0,0,1,.546.546Z" transform="translate(-4 -2)" fill="#6c7079"/>
</svg>
