<svg version="1.2" xmlns="http://www.w3.org/2000/svg" viewBox="0 0 18 21" width="18" height="21">
	<title>notification_icon_selected-svg</title>
	<style>
		.s0 { fill: #112c61 } 
	</style>
	<path id="notification_icon_selected" class="s0" d="m10.2 18q0.2 0 0.4 0.1 0.2 0 0.4 0 0.2 0.1 0.4 0.2 0.1 0 0.3 0.1 0.2 0.1 0.3 0.3 0.1 0.1 0.1 0.3 0 0.2 0 0.4-0.1 0.2-0.2 0.3-0.2 0.3-0.5 0.6-0.3 0.2-0.6 0.4-0.3 0.2-0.6 0.3-0.4 0.1-0.8 0.1-0.3 0-0.7 0-0.4 0-0.7-0.1-0.4-0.1-0.8-0.3-0.3-0.2-0.6-0.4-0.1-0.1-0.3-0.2-0.1-0.2-0.2-0.3-0.1-0.2-0.1-0.4-0.1-0.1-0.1-0.3c0-0.5 0.5-0.8 0.9-0.9q0.2 0 0.4-0.1 0.2 0 0.4 0 0.2 0 0.4 0 0.2-0.1 0.4-0.1c0 0 1.8 0 1.8 0zm-1.2-18c3.3 0 6.7 2.4 7 5.8 0.1 0.7 0 1.4 0.1 2.1q0 0.4 0.1 0.7 0.2 0.3 0.3 0.7 0.2 0.3 0.4 0.6 0.2 0.3 0.4 0.5 0.1 0.2 0.3 0.5 0.1 0.2 0.2 0.4 0 0.3 0.1 0.5 0 0.3 0.1 0.6v0.2q0 0.3-0.1 0.7-0.1 0.3-0.2 0.6-0.1 0.4-0.3 0.7-0.2 0.3-0.4 0.5-0.3 0.3-0.6 0.6-0.4 0.2-0.8 0.4-0.3 0.2-0.7 0.3-0.4 0.2-0.9 0.2-1.2 0.2-2.5 0.2-1.3 0.1-2.5 0.1-1.3 0-2.6-0.1-1.2 0-2.5-0.2-0.4 0-0.8-0.2-0.5-0.1-0.8-0.3-0.4-0.1-0.8-0.4-0.3-0.3-0.6-0.6-0.2-0.2-0.4-0.5-0.2-0.3-0.3-0.7-0.1-0.3-0.2-0.6 0-0.4 0-0.7v-0.2q0-0.3 0.1-0.6 0-0.2 0.1-0.5 0.1-0.2 0.2-0.4 0.1-0.3 0.2-0.5 0.3-0.2 0.5-0.5 0.2-0.3 0.3-0.6 0.2-0.4 0.3-0.7 0.1-0.3 0.2-0.7c0-0.7 0-1.4 0-2.1 0.4-3.4 3.7-5.8 7-5.8z"/>
</svg>