<svg version="1.2" xmlns="http://www.w3.org/2000/svg" viewBox="0 0 40 39" width="40" height="39">
	<title>pallete_icon-svg</title>
	<style>
		.s0 { opacity: 0;fill: #ffffff } 
		.s1 { fill: #ffffff } 
	</style>
	<g id="pallete_icon">
		<g id="Layer_2">
			<g id="color-palette">
				<path id="Rectangle_1695" class="s0" d="m-3-4h46v46h-46z"/>
				<path id="Path_238" fill-rule="evenodd" class="s1" d="m36.5 8.3q0.9 1.4 1.5 2.9 0.7 1.6 0.9 3.2 0.3 1.7 0.3 3.3c-0.1 1.5-0.5 2.9-1.2 4.3-0.6 1.3-1.5 2.5-2.6 3.5-1.1 1-2.4 1.8-3.7 2.3-1.4 0.5-2.9 0.8-4.3 0.8h-3.2q-0.3 0-0.5 0.1-0.3 0.2-0.4 0.5-0.1 0.2 0 0.5 0 0.3 0.2 0.5 0.4 0.4 0.7 0.9 0.2 0.6 0.4 1.1 0.1 0.6 0.1 1.2 0 0.6-0.1 1.1-0.2 0.8-0.7 1.5-0.5 0.7-1.1 1.2-0.7 0.5-1.5 0.7-0.8 0.3-1.6 0.3c-5.1 0-9.9-2.1-13.5-5.7-3.6-3.6-5.6-8.5-5.6-13.6 0-5 2.1-9.9 5.7-13.5 3.6-3.6 8.4-5.6 13.5-5.6q2.1 0 4.1 0.4 2 0.3 3.8 1.1 1.9 0.8 3.6 1.9 1.7 1.1 3.2 2.5 1.1 1.2 2 2.6zm-6.2 15.9q1.4-0.5 2.5-1.5 1.1-1 1.7-2.3 0.7-1.4 0.8-2.8 0.1-1.3-0.2-2.6-0.2-1.2-0.6-2.4-0.5-1.2-1.2-2.2-0.7-1.1-1.6-2-1.2-1.1-2.5-2-1.4-0.9-2.9-1.5-1.5-0.7-3.1-1-1.6-0.3-3.2-0.2h-0.2c-1.8 0-3.6 0.4-5.3 1-1.7 0.7-3.2 1.6-4.6 2.8-1.4 1.2-2.5 2.6-3.4 4.2-0.8 1.6-1.4 3.4-1.7 5.2-0.3 2.1-0.1 4.3 0.5 6.4 0.6 2.1 1.6 4 3.1 5.7 1.4 1.6 3.1 3 5.1 3.9 2 0.9 4.1 1.4 6.3 1.4 0.6 0 1-0.3 1.1-0.7q0.1-0.1 0.1-0.2 0-0.1-0.1-0.3 0-0.1-0.1-0.2 0-0.1-0.1-0.2c-0.6-0.7-1-1.5-1.2-2.4-0.1-1 0-1.9 0.4-2.7 0.4-0.9 1-1.6 1.8-2.1 0.7-0.5 1.7-0.8 2.6-0.8h3.1q1.5 0 2.9-0.5z"/>
				<path id="Ellipse_40" class="s1" d="m20 11.3c-1.6 0-2.9-1.3-2.9-2.8 0-1.6 1.3-2.9 2.9-2.9 1.6 0 2.9 1.3 2.9 2.9 0 1.5-1.3 2.8-2.9 2.8z"/>
				<path id="Path_239" class="s1" d="m26.7 9.6q0.3-0.1 0.6-0.2 0.3 0 0.6 0 0.2 0 0.5 0.1c1.3 0.4 2.2 1.6 2.1 3-0.1 1.4-1.1 2.5-2.5 2.6-1.3 0.2-2.6-0.6-3.1-1.9-0.4-1.3 0.1-2.7 1.3-3.4q0.3-0.1 0.5-0.2zm-12.5 0.5q0.2 0.2 0.4 0.4 0.2 0.3 0.3 0.5 0.1 0.3 0.2 0.5c0.4 1.4-0.3 2.8-1.5 3.4-1.2 0.6-2.7 0.2-3.5-0.9-0.9-1-0.8-2.6 0.1-3.6 0.9-1 2.4-1.3 3.6-0.6q0.2 0.1 0.4 0.3zm-4.9 7.2q0.3-0.1 0.5-0.2 0.3 0 0.6 0 0.3 0 0.6 0c1.3 0.3 2.3 1.5 2.3 2.8 0 1.4-1 2.6-2.3 2.8-1.3 0.3-2.7-0.4-3.2-1.6-0.5-1.3-0.1-2.7 1-3.5q0.2-0.2 0.5-0.3z"/>
			</g>
		</g>
	</g>
</svg>