<svg id="Personalization_icon" xmlns="http://www.w3.org/2000/svg" xmlns:xlink="http://www.w3.org/1999/xlink" width="23.02" height="23.016" viewBox="0 0 23.02 23.016">
  <defs>
    <clipPath id="clip-path">
      <rect id="Rectangle_1572" data-name="Rectangle 1572" width="23.02" height="23.016" fill="#112c61" stroke="#182c5e" stroke-width="0.5"/>
    </clipPath>
  </defs>
  <g id="Group_98" data-name="Group 98" clip-path="url(#clip-path)">
    <path id="Path_39" data-name="Path 39" d="M0,9.8a1,1,0,0,1,1.122-.723c.365.021.733,0,1.052,0l1.017-2.46c-.243-.242-.53-.526-.815-.812a.912.912,0,0,1-.01-1.432Q3.374,3.367,4.385,2.359a.906.906,0,0,1,1.4-.006c.282.279.563.56.844.84.01.01.026.014-.01,0L9.082,2.166c0-.354,0-.765,0-1.176A.907.907,0,0,1,10.075,0h2.832a.919.919,0,0,1,1.03,1.042c0,.389,0,.778,0,1.119l2.469,1.021c.237-.239.521-.525.806-.81a.913.913,0,0,1,1.433,0q1,1,2,2a.914.914,0,0,1,0,1.434c-.28.281-.563.559-.842.836.192.4.393.787.558,1.185s.3.815.452,1.255H22A.916.916,0,0,1,23.02,10.11q0,1.416,0,2.832a.909.909,0,0,1-.988.995c-.411,0-.822,0-1.179,0L19.832,16.4c.255.253.563.555.867.861a.862.862,0,0,1,.243.944,1.1,1.1,0,0,1-.251.391q-1.04,1.058-2.1,2.1a.892.892,0,0,1-1.337-.009c-.294-.288-.585-.581-.877-.871-.01-.01-.026-.014.017.009l-2.46,1.016c0,.32-.017.687,0,1.052a1,1,0,0,1-.723,1.122H9.8A1,1,0,0,1,9.078,21.9c.021-.371,0-.744,0-1.055L6.627,19.822c.041-.023.026-.018.016-.008-.287.285-.573.571-.861.855a.9.9,0,0,1-1.385,0q-1.028-1.022-2.05-2.05a.9.9,0,0,1,0-1.384c.3-.3.594-.59.848-.842L2.177,13.937c-.322,0-.689-.017-1.055,0A1,1,0,0,1,0,13.217ZM5.121,20.064c.366-.367.744-.75,1.126-1.129a.445.445,0,0,1,.645-.077A8.833,8.833,0,0,0,9.575,19.97a.464.464,0,0,1,.405.533c0,.472,0,.944,0,1.416,0,.064.008.128.012.187h3.021a.2.2,0,0,0,.019-.052q0-.753,0-1.506c0-.378.1-.5.473-.591a8.668,8.668,0,0,0,2.541-1.048c.357-.219.494-.2.787.091L17.9,20.06,20.065,17.9c-.362-.361-.739-.735-1.113-1.111a.454.454,0,0,1-.088-.644,8.929,8.929,0,0,0,1.123-2.7.453.453,0,0,1,.512-.4c.39,0,.779,0,1.169,0H22.1V9.981H20.6c-.428,0-.542-.089-.639-.5a8.537,8.537,0,0,0-1.008-2.461c-.267-.441-.255-.538.117-.91l.982-.979L17.891,2.965c-.341.342-.7.7-1.061,1.063a.5.5,0,0,1-.754.083,8.516,8.516,0,0,0-2.56-1.058c-.382-.088-.477-.214-.477-.612,0-.507,0-1.014,0-1.526H9.981c0,.53,0,1.046,0,1.562,0,.351-.106.492-.445.571a8.642,8.642,0,0,0-2.6,1.076A.486.486,0,0,1,6.2,4.037c-.364-.365-.725-.734-1.073-1.086L2.957,5.124c.357.356.734.728,1.107,1.1a.458.458,0,0,1,.088.662A8.769,8.769,0,0,0,3.045,9.575a.462.462,0,0,1-.533.406c-.472,0-.944,0-1.416,0-.064,0-.128.008-.184.012v3.044c.536,0,1.059,0,1.582,0,.348,0,.482.107.564.451a8.693,8.693,0,0,0,1.068,2.58c.2.329.182.477-.092.752-.364.365-.729.728-1.08,1.079l2.167,2.163" transform="translate(0 -0.001)" fill="#112c61" stroke="#182c5e" stroke-width="0.5"/>
    <path id="Path_40" data-name="Path 40" d="M84.431,95.856a8.159,8.159,0,0,1,.531-.847,1.768,1.768,0,0,1,1.09-.575c.438-.088.873-.189,1.306-.283,0-.032.006-.052,0-.059a2.462,2.462,0,0,1-.623-1.818c.02-.591,0-1.184,0-1.775A1.914,1.914,0,0,1,88.7,88.542c.757,0,1.514,0,2.27,0,.376,0,.532.156.534.532s.025.736-.008,1.1a5.028,5.028,0,0,1-.191.775,1.469,1.469,0,0,0-.072.3c-.01.269-.014.54,0,.809a2.533,2.533,0,0,1-.68,2.082c.412.091.777.19,1.148.25a1.978,1.978,0,0,1,1.79,1.531,5.419,5.419,0,0,0,.928-1.832,5.655,5.655,0,0,0-3.5-6.909c-.049-.018-.1-.035-.147-.056a.446.446,0,1,1,.311-.836,5.848,5.848,0,0,1,2,1.09,6.305,6.305,0,0,1,2.249,6.72,6.24,6.24,0,0,1-5.183,4.856,6.559,6.559,0,0,1-3.093-12.723,1.26,1.26,0,0,1,.239-.058.451.451,0,0,1,.462.32.443.443,0,0,1-.218.516,1.7,1.7,0,0,1-.274.1,5.672,5.672,0,0,0-2.922,8.637c.034.048.071.095.087.116M89.663,98.1a.2.2,0,0,0,.057.016A5.551,5.551,0,0,0,92.544,96.9a.257.257,0,0,0,.076-.169,3.925,3.925,0,0,0,0-.493.866.866,0,0,0-.582-.829c-.392-.133-.806-.2-1.22-.3L89.663,98.1m-1.355.025-1.164-3.005c-.385.086-.751.156-1.11.251a.86.86,0,0,0-.669.759c-.049.376-.09.733.34,1a6.305,6.305,0,0,0,2.6.991m-.671-6.383c0,.294-.005.561,0,.827a1.349,1.349,0,0,0,2.593.482,3.467,3.467,0,0,0,.1-1.31ZM90.6,89.47c-.029-.013-.042-.024-.055-.025-.621,0-1.242-.008-1.863,0a1.058,1.058,0,0,0-1.01,1.4c.769,0,1.54.007,2.31,0a.624.624,0,0,0,.613-.553c.024-.273,0-.549,0-.816m-1.622,7.894.952-2.456a.482.482,0,0,0-.513-.181,3.5,3.5,0,0,1-.975-.026.363.363,0,0,0-.358.154c-.038.042,0,.159.016.239a1.468,1.468,0,0,0,.079.21l.8,2.06" transform="translate(-77.476 -80.992)" fill="#112c61" stroke="#182c5e" stroke-width="0.5"/>
    <path id="Path_41" data-name="Path 41" d="M187.392,82.819a.45.45,0,0,1-.45.456.448.448,0,1,1,.007-.9.449.449,0,0,1,.443.44" transform="translate(-175.298 -77.432)" fill="#112c61" stroke="#182c5e" stroke-width="0.5"/>
  </g>
</svg>
