<svg version="1.2" xmlns="http://www.w3.org/2000/svg" viewBox="0 0 202 201" width="15" height="15">
	<title>phone-svg</title>
	<style>
		.s0 { fill: #6c7079 } 
	</style>
	<g id="Layer">
		<path id="Layer" fill-rule="evenodd" class="s0" d="m192.2 183.2c-14 16.9-23.8 16.9-36.2 16.9-13.4 0-32.5-8.3-52.4-22.7-17.9-12.9-25.9-18.9-43.9-37.4-19.1-19.6-31.2-35.9-44.4-60.2-15.4-28.1-13.3-41.6-10.1-52 2.2-6.9 7.9-13.7 15.7-18.7 0.3-0.1 0.5-0.3 0.8-0.5 3.5-2.3 10.1-6.5 18-6.5 7.2 0 13.6 3.3 19.1 10.1l0.6 0.7c6.4 7.8 13.6 16.7 18.1 25.9 5.5 11.8 5.3 21.9-0.8 30.1-5 6.8-6.9 10.5-6.8 12.8 0.2 2.3 3 5.4 7.3 10.2l0.4 0.5c8.9 10.1 11.5 12.7 14.9 16.3 0.7 0.6 1.3 1.3 2 2l1 1.1c4 4.2 6.2 6.5 16.5 15.4l0.6 0.6c3.7 3.2 5.4 4.6 7 4.6 2.9 0 8.8-3.7 16.3-8.5 2.5-1.6 5.6-2.4 9.2-2.4 15.3 0 38.6 15.8 46.8 24.2 8.8 9.1 14.9 19.9 0.3 37.5zm-6.4-30.7c-7.4-7.6-28.4-21.6-40.6-21.6-1.9 0-3.4 0.4-4.5 1.1-10.5 6.7-16 9.8-21 9.8-4.8 0-8.1-2.8-12.6-6.8l-0.7-0.5c-10.5-9.3-12.8-11.7-17-16l-1-1.1c-0.7-0.7-1.4-1.4-2-2-3.6-3.7-6.2-6.4-15.2-16.6l-0.4-0.4c-5.5-6.2-9.2-10.3-9.6-15.8-0.5-5.6 2.6-11.1 8.6-19.1 8.4-11.5-2.8-27-17.1-44.6l-0.6-0.6c-3.8-4.7-7.8-7-12.3-7-5.4 0-10.4 3.2-13.3 5.2-0.4 0.1-0.7 0.3-0.9 0.5-6 3.7-10.4 8.8-11.9 13.6-2.7 9-4.2 19.8 9.3 44.6 12.9 23.5 24.5 39.3 43 58.3 17.5 17.9 25.3 23.7 42.7 36.3 18.2 13.1 35.9 21 47.4 21 11.7 0 18.1 0 29.4-13.6 10.4-12.7 7.1-17.9 0.3-24.7z"/>
	</g>
</svg>