<svg id="phone_icon" data-name="phone icon" xmlns="http://www.w3.org/2000/svg" width="12.057" height="12.057" viewBox="0 0 12.057 12.057">
  <path id="Path_249" data-name="Path 249" d="M0,0H12.057V12.057H0Z" fill="none"/>
  <path id="Path_250" data-name="Path 250" d="M4.778,4A6.186,6.186,0,0,0,5,5.306l-.6.6A7.448,7.448,0,0,1,4.02,4h.759m4.953,6.039a6.407,6.407,0,0,0,1.306.226v.749a7.75,7.75,0,0,1-1.909-.377l.6-.6M5.261,3H3.5a.5.5,0,0,0-.5.5,8.54,8.54,0,0,0,8.54,8.54.5.5,0,0,0,.5-.5V9.787a.5.5,0,0,0-.5-.5A5.731,5.731,0,0,1,9.747,9a.422.422,0,0,0-.156-.025.515.515,0,0,0-.357.146L8.129,10.224A7.61,7.61,0,0,1,4.819,6.914L5.924,5.808A.5.5,0,0,0,6.049,5.3,5.707,5.707,0,0,1,5.763,3.5.5.5,0,0,0,5.261,3Z" transform="translate(-1.493 -1.493)" fill="#6c7079"/>
</svg>
