<svg xmlns="http://www.w3.org/2000/svg" width="12.11" height="8.73" viewBox="0 0 12.11 8.73">
  <g id="premium_icon" transform="translate(-1.25 -4.25)">
    <path id="Path_3831" data-name="Path 3831" d="M11.615,5.095a3.52,3.52,0,1,0,1.509,6.7.422.422,0,0,1,.363.763,4.36,4.36,0,1,1,2.313-2.7.422.422,0,0,1-.81-.241,3.524,3.524,0,0,0-3.375-4.526Z" transform="translate(-2.62)" fill="#009eb5" fill-rule="evenodd"/>
    <path id="Path_3832" data-name="Path 3832" d="M3.5,4.672a.422.422,0,0,1,.422-.422H8.995a.422.422,0,0,1,0,.845H3.925A.422.422,0,0,1,3.5,4.672ZM3.221,6.644a.422.422,0,0,1,.422-.422h1.69a.422.422,0,0,1,0,.845H3.644A.422.422,0,0,1,3.221,6.644Zm-1.971,0a.422.422,0,0,1,.422-.422h.845a.422.422,0,1,1,0,.845H1.672A.422.422,0,0,1,1.25,6.644ZM2.377,8.9A.422.422,0,0,1,2.8,8.474H5.052a.422.422,0,0,1,0,.845H2.8A.422.422,0,0,1,2.377,8.9Zm5.14-2.206A.422.422,0,0,1,7.868,6.5h2.253a.422.422,0,0,1,.351.188L11.6,8.381a.422.422,0,0,1,0,.469l-1.127,1.69a.422.422,0,0,1-.351.188H7.868a.422.422,0,0,1-.351-.188L6.39,8.85a.422.422,0,0,1,0-.469Zm.578.657L7.249,8.615l.845,1.267H9.9l.845-1.267L9.9,7.348Z" transform="translate(0)" fill="#009eb5" fill-rule="evenodd"/>
  </g>
</svg>
