<svg xmlns="http://www.w3.org/2000/svg" width="13.169" height="12.79" viewBox="0 0 13.169 12.79">
  <g id="price_icon" transform="translate(-0.363 -0.639)">
    <path id="Path_3902" data-name="Path 3902" d="M6.794,1.852,2.4,2A.214.214,0,0,0,2.2,2.21L2.045,6.6a.214.214,0,0,0,.055.152l6.056,6.659a.214.214,0,0,0,.31.008l5.147-5.147a.214.214,0,0,0-.008-.31L6.944,1.907A.214.214,0,0,0,6.794,1.852Zm-.073.431,6.43,5.845L8.322,12.956,2.476,6.528l.142-4.1Z" transform="translate(-0.292 -0.203)" fill="#fff" stroke="#fff" stroke-width="0.3"/>
    <path id="Path_3903" data-name="Path 3903" d="M5.05,3.789a1.068,1.068,0,1,0,.757.311A1.066,1.066,0,0,0,5.05,3.789ZM4.6,4.4a.643.643,0,1,1,0,.909A.64.64,0,0,1,4.6,4.4ZM7.62,6.61a.214.214,0,0,0-.147.065l-.3.3a.746.746,0,0,0-.164.273.648.648,0,0,0,.8.8.737.737,0,0,0,.273-.166.34.34,0,0,1,.106-.062c.059-.02.1-.039.2.062s.081.138.062.2a.34.34,0,0,1-.062.106l-.3.3a.215.215,0,1,0,.3.3l.3-.3a.722.722,0,0,0,.166-.272.649.649,0,0,0-.8-.8.722.722,0,0,0-.272.166.34.34,0,0,1-.106.062c-.059.02-.1.039-.2-.062s-.081-.138-.062-.2a.34.34,0,0,1,.062-.106l.3-.3A.214.214,0,0,0,7.62,6.61Z" transform="translate(-0.662 -0.573)" fill="#fff" stroke="#fff" stroke-width="0.3"/>
    <path id="Path_3904" data-name="Path 3904" d="M7.661,7.275a.214.214,0,0,0-.128.367l.3.3.3-.3-.3-.3A.214.214,0,0,0,7.661,7.275ZM9.047,9.156l.3.3a.215.215,0,0,0,.3-.3l-.3-.3Z" transform="translate(-1.328 -1.238)" fill="#fff" stroke="#fff" stroke-width="0.3"/>
    <path id="Path_3905" data-name="Path 3905" d="M5.751,5.647a2.141,2.141,0,1,0,3.028,0A2.145,2.145,0,0,0,5.751,5.647Zm.3.3a1.713,1.713,0,1,1,0,2.423A1.71,1.71,0,0,1,6.054,5.95ZM.847,10a.214.214,0,0,0-.2.205L.514,12.986a.214.214,0,0,0,.215.223h7.29v-.428H.953l.122-2.56A.214.214,0,0,0,.847,10Zm.043-.64a.214.214,0,0,0,0,.428A.214.214,0,0,0,.89,9.356ZM1.926,2.994l-.917.853a.214.214,0,0,0-.068.147L.708,8.918a.214.214,0,1,0,.428.021L1.365,4.1l.853-.795ZM4.376.789a.214.214,0,0,0-.21.218V4.218a.214.214,0,1,0,.428,0V1.007A.214.214,0,0,0,4.376.789Z" transform="translate(0 0)" fill="#fff" stroke="#fff" stroke-width="0.3"/>
  </g>
</svg>
