<svg xmlns="http://www.w3.org/2000/svg" width="171" height="171" viewBox="0 0 171 171">
  <g id="pro_plan_icon" data-name="pro plan_icon" transform="translate(-553 -403)">
    <g id="Group_364" data-name="Group 364" transform="translate(-5.033 -4)">
      <path id="Path_201" data-name="Path 201" d="M22.326,63.171V52.882a4.773,4.773,0,0,1,4.791-4.756h9.671a4.808,4.808,0,0,1,3.387,1.393,4.738,4.738,0,0,1,1.4,3.363V63.171a4.082,4.082,0,0,0,1.2,2.917A4.143,4.143,0,0,0,45.706,67.3h6.6a11.643,11.643,0,0,0,8.222-3.362,11.473,11.473,0,0,0,3.408-8.153V26.472a8.32,8.32,0,0,0-3.013-6.4L38.475,2.274a10.423,10.423,0,0,0-13.287.239L3.254,20.071A8.325,8.325,0,0,0,0,26.472V55.753A11.588,11.588,0,0,0,11.63,67.3h6.448a4.143,4.143,0,0,0,4.158-4.1Z" transform="translate(608.033 458.701)" fill="#009eb5"/>
      <g id="Group_362" data-name="Group 362" transform="translate(659.58 455)">
        <path id="Path_202" data-name="Path 202" d="M7.531,14.675a.563.563,0,0,1-.108-1.115c2.7-.532,3.733-1.84,4.236-5.381a.563.563,0,1,1,1.114.158c-.566,3.988-1.958,5.7-5.133,6.327A.555.555,0,0,1,7.531,14.675Z" transform="translate(-6.969 -7.695)" fill="#009eb5"/>
        <path id="Path_203" data-name="Path 203" d="M16.9,14.675a.558.558,0,0,1-.11-.011c-3.175-.625-4.566-2.34-5.133-6.327a.563.563,0,1,1,1.114-.158c.5,3.542,1.533,4.849,4.236,5.381a.563.563,0,0,1-.108,1.115Zm-4.686,5.855a.562.562,0,0,1-.556-.484c-.5-3.542-1.533-4.849-4.236-5.382a.563.563,0,1,1,.218-1.1c3.175.625,4.566,2.34,5.133,6.328a.563.563,0,0,1-.478.636A.587.587,0,0,1,12.216,20.529Z" transform="translate(-6.969 -7.695)" fill="#009eb5"/>
        <path id="Path_204" data-name="Path 204" d="M20.021,30.282a.587.587,0,0,1-.08-.006.563.563,0,0,1-.478-.636c.566-3.988,1.958-5.7,5.133-6.328a.563.563,0,1,1,.218,1.1c-2.7.532-3.733,1.84-4.236,5.382A.562.562,0,0,1,20.021,30.282Zm4.548.842a.563.563,0,0,1-.108-1.115c2.039-.4,2.817-1.394,3.2-4.085a.563.563,0,1,1,1.114.158c-.45,3.168-1.56,4.532-4.1,5.031A.559.559,0,0,1,24.569,31.123Z" transform="translate(-14.773 -17.447)" fill="#009eb5"/>
        <path id="Path_205" data-name="Path 205" d="M39.444,34.685a.561.561,0,0,1-.11-.011c-2.535-.5-3.645-1.862-4.1-5.031a.563.563,0,0,1,1.114-.158c.383,2.691,1.16,3.684,3.2,4.085a.563.563,0,0,1-.108,1.115ZM35.8,39.243a.563.563,0,0,1-.556-.484c-.383-2.691-1.16-3.684-3.2-4.085a.563.563,0,0,1,.218-1.1c2.535.5,3.646,1.863,4.1,5.031a.563.563,0,0,1-.478.636A.587.587,0,0,1,35.8,39.243Z" transform="translate(-22.352 -21.009)" fill="#009eb5"/>
        <path id="Path_206" data-name="Path 206" d="M41.693,26.38a.587.587,0,0,1-.08-.006.563.563,0,0,1-.478-.636c.45-3.169,1.56-4.532,4.1-5.031a.563.563,0,0,1,.218,1.1c-2.039.4-2.816,1.394-3.2,4.085A.563.563,0,0,1,41.693,26.38Zm-.109-13.789a.563.563,0,0,1-.108-1.115c1.281-.252,1.747-.854,1.991-2.576a.563.563,0,1,1,1.114.158c-.259,1.824-.849,3.121-2.888,3.522A.561.561,0,0,1,41.584,12.591Z" transform="translate(-28.248 -8.146)" fill="#009eb5"/>
        <path id="Path_207" data-name="Path 207" d="M46.465,12.591a.561.561,0,0,1-.11-.011c-2.038-.4-2.628-1.7-2.888-3.522A.563.563,0,0,1,44.582,8.9c.245,1.722.71,2.324,1.991,2.576a.563.563,0,0,1-.108,1.115ZM44.024,15.64a.563.563,0,0,1-.556-.484c-.245-1.722-.71-2.324-1.991-2.576a.563.563,0,1,1,.218-1.1c2.039.4,2.629,1.7,2.888,3.522a.563.563,0,0,1-.478.636.594.594,0,0,1-.08.005Z" transform="translate(-28.248 -8.146)" fill="#009eb5"/>
        <path id="Path_208" data-name="Path 208" d="M48.09,20.719a.593.593,0,0,1-.08-.005.563.563,0,0,1-.478-.636c.26-1.824.85-3.121,2.888-3.522a.563.563,0,1,1,.218,1.1c-1.281.252-1.746.854-1.991,2.576A.563.563,0,0,1,48.09,20.719Z" transform="translate(-32.312 -13.225)" fill="#009eb5"/>
      </g>
    </g>
    <g id="Group_363" data-name="Group 363" transform="translate(-18.342 -231.342)">
      <g id="Ellipse_30" data-name="Ellipse 30" transform="translate(571.342 634.342)" fill="none" stroke="#009eb5" stroke-width="1" stroke-dasharray="7">
        <circle cx="85.5" cy="85.5" r="85.5" stroke="none"/>
        <circle cx="85.5" cy="85.5" r="85" fill="none"/>
      </g>
    </g>
  </g>
</svg>
