<svg xmlns="http://www.w3.org/2000/svg" width="12.347" height="12.241" viewBox="0 0 12.347 12.241">
  <g id="size_area_icon" data-name="size area_icon" transform="translate(-248.514 -716.924)">
    <path id="home" d="M2.72,7.67V6.417a.583.583,0,0,1,.582-.58H4.481a.583.583,0,0,1,.586.58h0V7.674a.5.5,0,0,0,.491.5h.786a1.412,1.412,0,0,0,1.419-1.4h0V3.2a1,1,0,0,0-.393-.778L4.682.28A1.3,1.3,0,0,0,3.07.28L.393,2.428A.989.989,0,0,0,0,3.206V6.767a1.412,1.412,0,0,0,1.419,1.4h.786a.5.5,0,0,0,.507-.5h0" transform="translate(252.697 720.593)" fill="none" stroke="#848790" stroke-linecap="round" stroke-linejoin="round" stroke-width="0.8"/>
    <path id="size" d="M1.973,12.826l-.557-.557a.243.243,0,1,0-.344.344l.973.973a.243.243,0,0,0,.344,0l.973-.973a.243.243,0,1,0-.344-.344l-.557.557V2.958h9.868l-.557.557a.243.243,0,0,0,.344.344l.973-.973a.243.243,0,0,0,0-.344l-.973-.973a.243.243,0,0,0-.344.344l.557.557H2.459V1.743a.243.243,0,1,0-.486,0v.729H1.243a.243.243,0,1,0,0,.486h.729v9.868Z" transform="translate(247.514 715.425)" fill="#848790" fill-rule="evenodd"/>
  </g>
</svg>
