<svg version="1.2" xmlns="http://www.w3.org/2000/svg" viewBox="0 0 7 12" width="7" height="12">
	<title>download-svg</title>
	<style>
		.s0 { fill: #232323 } 
		.s1 { fill: #191919 } 
	</style>
	<path id="Layer" class="s0" d="m0.6-0.4q0.1 0 0.2-0.1 0.1 0 0.2 0 0.1 0 0.2 0 0.1 0.1 0.2 0.1l6 6q0 0.1 0.1 0.2 0 0.1 0 0.2 0 0.1 0 0.2-0.1 0.1-0.1 0.2l-6 6q-0.2 0.1-0.4 0.1-0.2 0-0.4-0.1-0.1-0.2-0.1-0.4 0-0.2 0.1-0.4l5.7-5.6-5.7-5.6q0-0.1-0.1-0.2 0-0.1 0-0.2 0-0.1 0-0.2 0.1-0.1 0.1-0.2z"/>
	<path id="Layer copy" class="s1" d="m-0.4-0.4q0.1 0 0.2-0.1 0.1 0 0.2 0 0.1 0 0.2 0 0.1 0.1 0.2 0.1l6 6q0 0.1 0.1 0.2 0 0.1 0 0.2 0 0.1 0 0.2-0.1 0.1-0.1 0.2l-6 6q-0.2 0.1-0.4 0.1-0.2 0-0.4-0.1-0.1-0.2-0.1-0.4 0-0.2 0.1-0.4l5.7-5.6-5.7-5.6q0-0.1-0.1-0.2 0-0.1 0-0.2 0-0.1 0-0.2 0.1-0.1 0.1-0.2z"/>
</svg>