<svg xmlns="http://www.w3.org/2000/svg" width="9.86" height="9.86" viewBox="0 0 9.86 9.86">
  <g id="timer_icon" transform="translate(-2 -2)">
    <path id="Path_3833" data-name="Path 3833" d="M6.93,11.86A4.93,4.93,0,0,1,3.444,3.444.394.394,0,1,1,4,4,4.141,4.141,0,1,0,7.324,2.807V4.761a.394.394,0,0,1-.789,0V2.394A.394.394,0,0,1,6.93,2a4.93,4.93,0,0,1,0,9.86Z" fill="#ac2318"/>
    <path id="Path_3834" data-name="Path 3834" d="M8.616,9.173a.394.394,0,0,1,.558-.558l2.251,1.693a.789.789,0,1,1-1.115,1.115Z" transform="translate(-3.937 -3.937)" fill="#ac2318"/>
  </g>
</svg>
