<svg id="update_icon" xmlns="http://www.w3.org/2000/svg" width="17" height="17" viewBox="0 0 17 17">
  <g id="edit">
    <rect id="Rectangle_1710" data-name="Rectangle 1710" width="17" height="17" fill="#6d7078" opacity="0"/>
    <path id="Path_251" data-name="Path 251" d="M14.907,6.383,12.966,4.442a1.417,1.417,0,0,0-1.884-.05L4.707,10.767a1.417,1.417,0,0,0-.4.857L4,14.578a.707.707,0,0,0,.708.772h.064l2.954-.269a1.417,1.417,0,0,0,.857-.4L14.957,8.3a1.36,1.36,0,0,0-.05-1.92ZM7.6,13.664l-2.125.2.191-2.125,4-3.953L11.578,9.7Zm4.9-4.916-1.9-1.9,1.381-1.417,1.934,1.934Z" transform="translate(-1.165 -1.184)" fill="#6d7078"/>
  </g>
</svg>
