<svg version="1.2" xmlns="http://www.w3.org/2000/svg" viewBox="0 0 16 16" width="16" height="16">
	<title>user_icon-svg</title>
	<style>
		.s0 { opacity: 0;fill: #6c7079 } 
		.s1 { fill: #b7bac3 } 
	</style>
	<g id="person">
		<path id="Rectangle_1652" class="s0" d="m0 0h16v16h-16z"/>
		<path id="Path_128" fill-rule="evenodd" class="s1" d="m6.9 7.1q-0.5-0.2-0.8-0.6-0.4-0.4-0.6-0.9-0.2-0.5-0.2-1c0-1 0.6-2 1.6-2.4 1-0.4 2.1-0.2 2.9 0.6 0.7 0.7 1 1.8 0.6 2.8-0.4 1-1.4 1.7-2.5 1.7q-0.5 0-1-0.2zm0.5-3.7q-0.2 0.1-0.4 0.3-0.2 0.2-0.3 0.4-0.1 0.3-0.1 0.5c0 0.6 0.3 1 0.8 1.2 0.5 0.2 1.1 0.1 1.5-0.2 0.3-0.4 0.4-1 0.2-1.5-0.2-0.5-0.6-0.8-1.2-0.8q-0.2 0-0.5 0.1zm2.3 5.5q0.8 0.4 1.5 1 0.6 0.7 1 1.5 0.3 0.9 0.3 1.8 0 0.3-0.2 0.5-0.1 0.2-0.4 0.2-0.3 0-0.5-0.2-0.2-0.2-0.2-0.5c0-0.9-0.3-1.7-0.9-2.3-0.7-0.7-1.5-1-2.4-1-0.9 0-1.7 0.3-2.3 1-0.6 0.6-1 1.4-1 2.3q0 0.3-0.2 0.5-0.2 0.2-0.4 0.2-0.3 0-0.5-0.2-0.2-0.2-0.2-0.5 0-0.9 0.4-1.8 0.3-0.8 1-1.5 0.6-0.6 1.5-1 0.8-0.3 1.7-0.3 0.9 0 1.8 0.3z"/>
	</g>
</svg>