<svg xmlns="http://www.w3.org/2000/svg" width="32" height="18" viewBox="0 0 32 18">
  <g id="visa_icon" transform="translate(-1132 -218)">
    <g id="Group_405" data-name="Group 405" transform="translate(1136.5 201.602)">
      <path id="Path_214" data-name="Path 214" d="M23.6,28.878,24.645,23h1.633l-1.012,5.878Z" transform="translate(-15.557 -0.404)" fill="#3c58bf"/>
      <path id="Path_215" data-name="Path 215" d="M23.6,28.878,24.939,23h1.339l-1.012,5.878Z" transform="translate(-15.557 -0.404)" fill="#293688"/>
      <path id="Path_216" data-name="Path 216" d="M36.5,22.661a4.142,4.142,0,0,0-1.5-.261c-1.633,0-2.808.816-2.808,1.992,0,.882.816,1.339,1.469,1.633s.849.49.849.751c0,.392-.522.588-.98.588a3.549,3.549,0,0,1-1.567-.327l-.229-.1L31.5,28.278a5.294,5.294,0,0,0,1.861.327c1.731,0,2.873-.816,2.873-2.057,0-.686-.424-1.208-1.4-1.633-.588-.294-.947-.457-.947-.751,0-.261.294-.522.947-.522a3,3,0,0,1,1.241.229l.163.065Z" transform="translate(-20.878)" fill="#3c58bf"/>
      <path id="Path_217" data-name="Path 217" d="M36.5,22.661a4.142,4.142,0,0,0-1.5-.261c-1.633,0-2.514.816-2.514,1.992a1.707,1.707,0,0,0,1.175,1.633c.653.294.849.49.849.751,0,.392-.522.588-.98.588a3.549,3.549,0,0,1-1.567-.327l-.229-.1L31.5,28.278a5.294,5.294,0,0,0,1.861.327c1.731,0,2.873-.816,2.873-2.057,0-.686-.424-1.208-1.4-1.633-.588-.294-.947-.457-.947-.751,0-.261.294-.522.947-.522a3,3,0,0,1,1.241.229l.163.065Z" transform="translate(-20.878)" fill="#293688"/>
      <path id="Path_218" data-name="Path 218" d="M48.6,23c-.392,0-.686.033-.849.424L45.3,28.878h1.763l.327-.98h2.09l.2.98h1.567L49.871,23Zm-.751,3.918c.1-.294.653-1.731.653-1.731s.131-.359.229-.588l.1.555s.327,1.469.392,1.8H47.847Z" transform="translate(-30.172 -0.404)" fill="#3c58bf"/>
      <path id="Path_219" data-name="Path 219" d="M48.99,23c-.392,0-.686.033-.849.424L45.3,28.878h1.763l.327-.98h2.09l.2.98h1.567L49.871,23Zm-1.143,3.918c.131-.327.653-1.731.653-1.731s.131-.359.229-.588l.1.555s.327,1.469.392,1.8H47.847Z" transform="translate(-30.172 -0.404)" fill="#293688"/>
      <path id="Path_220" data-name="Path 220" d="M9.349,27.182l-.163-.849A4.733,4.733,0,0,0,6.9,23.753l1.469,5.224h1.763L12.778,23.1H11.014Z" transform="translate(-4.31 -0.471)" fill="#3c58bf"/>
      <path id="Path_221" data-name="Path 221" d="M9.349,27.182l-.163-.849A4.733,4.733,0,0,0,6.9,23.753l1.469,5.224h1.763L12.778,23.1H11.341Z" transform="translate(-4.31 -0.471)" fill="#293688"/>
      <path id="Path_222" data-name="Path 222" d="M.5,23l.294.065a5.507,5.507,0,0,1,4.082,3.2L4.288,23.49C4.19,23.1,3.9,23,3.537,23Z" transform="translate(0 -0.404)" fill="#ffbc00"/>
      <path id="Path_223" data-name="Path 223" d="M.5,23a6.08,6.08,0,0,1,4.375,3.233L4.32,23.914a.8.8,0,0,0-.784-.62Z" transform="translate(0 -0.404)" fill="#f7981d"/>
      <path id="Path_224" data-name="Path 224" d="M.5,23a6.08,6.08,0,0,1,4.375,3.233l-.392-1.273a1.152,1.152,0,0,0-.686-.947Z" transform="translate(0 -0.404)" fill="#ed7c00"/>
      <g id="Group_401" data-name="Group 401" transform="translate(2.622 23.249)">
        <path id="Path_225" data-name="Path 225" d="M11.049,28.265l-1.11-1.11L9.416,28.4l-.131-.816A4.733,4.733,0,0,0,7,25l1.469,5.224h1.763Z" transform="translate(-7 -25)" fill="#051244"/>
      </g>
      <g id="Group_402" data-name="Group 402" transform="translate(8.043 27.037)">
        <path id="Path_226" data-name="Path 226" d="M25.265,38.037l-1.4-1.437L23.6,38.037Z" transform="translate(-23.6 -36.6)" fill="#051244"/>
      </g>
      <g id="Group_403" data-name="Group 403" transform="translate(10.622 26.449)">
        <path id="Path_227" data-name="Path 227" d="M34.341,34.8c.131.131.2.229.163.359,0,.392-.522.588-.98.588a3.549,3.549,0,0,1-1.567-.327l-.229-.1L31.5,36.661a5.294,5.294,0,0,0,1.861.327,3.233,3.233,0,0,0,2.384-.816Z" transform="translate(-31.5 -34.8)" fill="#051244"/>
      </g>
      <g id="Group_404" data-name="Group 404" transform="translate(15.357 24.196)">
        <path id="Path_228" data-name="Path 228" d="M46,32.178h1.535l.327-.98h2.09l.2.98h1.567l-.555-2.384L49.2,27.9l.1.522s.327,1.469.392,1.8H48.318c.131-.327.653-1.731.653-1.731s.131-.359.229-.588" transform="translate(-46 -27.9)" fill="#051244"/>
      </g>
    </g>
    <g id="Rectangle_1677" data-name="Rectangle 1677" transform="translate(1132 218)" fill="none" stroke="#b7bac3" stroke-width="0.5">
      <rect width="32" height="18" rx="3" stroke="none"/>
      <rect x="0.25" y="0.25" width="31.5" height="17.5" rx="2.75" fill="none"/>
    </g>
  </g>
</svg>
