<svg id="whatsapp_icon" xmlns="http://www.w3.org/2000/svg" width="15.99" height="15.99" viewBox="0 0 15.99 15.99">
  <path id="Path_62" data-name="Path 62" d="M105.09,197.428a4.33,4.33,0,0,0-4.328-4.328H93.428a4.33,4.33,0,0,0-4.328,4.328v7.335a4.33,4.33,0,0,0,4.328,4.328h7.335a4.33,4.33,0,0,0,4.328-4.328Zm-1.32,0v7.335a3.009,3.009,0,0,1-3.007,3.007H93.428a3.009,3.009,0,0,1-3.007-3.007v-7.335a3.009,3.009,0,0,1,3.007-3.007h7.335A3.009,3.009,0,0,1,103.77,197.428Z" transform="translate(-89.1 -193.1)" fill="#112c61" fill-rule="evenodd"/>
  <g id="whatsapp" transform="translate(4.389 4.001)">
    <path id="Path_63" data-name="Path 63" d="M21.4,15.8a3.6,3.6,0,0,0-3.6,3.6,3.544,3.544,0,0,0,.576,1.955l-.545,1.207a.327.327,0,0,0,.047.335.348.348,0,0,0,.327.1l1.511-.413A3.6,3.6,0,1,0,21.4,15.8Zm0,6.574a2.951,2.951,0,0,1-1.5-.405.281.281,0,0,0-.156-.047.319.319,0,0,0-.086.008l-.989.273.343-.756a.318.318,0,0,0-.031-.312,2.944,2.944,0,0,1-.561-1.737A2.975,2.975,0,1,1,21.4,22.374Z" transform="translate(-17.8 -15.8)" fill="#112c61" fill-rule="evenodd"/>
    <path id="Path_64" data-name="Path 64" d="M44.819,43.15a.585.585,0,0,0-.522-.117c-.132.055-.226.273-.312.382a.142.142,0,0,1-.171.039,2.357,2.357,0,0,1-1.184-1.013.155.155,0,0,1,.016-.2.832.832,0,0,0,.218-.351.767.767,0,0,0-.093-.413.939.939,0,0,0-.3-.46.407.407,0,0,0-.452.07.916.916,0,0,0-.319.732.8.8,0,0,0,.031.234,1.881,1.881,0,0,0,.226.514,2.74,2.74,0,0,0,.234.351,3.589,3.589,0,0,0,1,.935,3.109,3.109,0,0,0,.631.3,1.483,1.483,0,0,0,.732.117.886.886,0,0,0,.662-.491.462.462,0,0,0,.031-.249C45.193,43.337,44.959,43.236,44.819,43.15Z" transform="translate(-39.834 -39.014)" fill="#112c61" fill-rule="evenodd"/>
  </g>
</svg>
